<?xml version="1.0" encoding="utf-8" standalone="no"?>
<!DOCTYPE svg PUBLIC "-//W3C//DTD SVG 1.1//EN"
  "http://www.w3.org/Graphics/SVG/1.1/DTD/svg11.dtd">
<svg xmlns:xlink="http://www.w3.org/1999/xlink" width="1080pt" height="288pt" viewBox="0 0 1080 288" xmlns="http://www.w3.org/2000/svg" version="1.1">
 <metadata>
  <rdf:RDF xmlns:dc="http://purl.org/dc/elements/1.1/" xmlns:cc="http://creativecommons.org/ns#" xmlns:rdf="http://www.w3.org/1999/02/22-rdf-syntax-ns#">
   <cc:Work>
    <dc:type rdf:resource="http://purl.org/dc/dcmitype/StillImage"/>
    <dc:date>2022-05-26T00:05:29.949659</dc:date>
    <dc:format>image/svg+xml</dc:format>
    <dc:creator>
     <cc:Agent>
      <dc:title>Matplotlib v3.5.1, https://matplotlib.org/</dc:title>
     </cc:Agent>
    </dc:creator>
   </cc:Work>
  </rdf:RDF>
 </metadata>
 <defs>
  <style type="text/css">*{stroke-linejoin: round; stroke-linecap: butt}</style>
 </defs>
 <g id="figure_1">
  <g id="patch_1">
   <path d="M 0 288 
L 1080 288 
L 1080 0 
L 0 0 
L 0 288 
z
" style="fill: none"/>
  </g>
  <g id="axes_1">
   <g id="patch_2">
    <path d="M 135 252 
L 972 252 
L 972 34.56 
L 135 34.56 
z
" style="fill: #ffffff"/>
   </g>
   <g id="matplotlib.axis_1">
    <g id="xtick_1">
     <g id="line2d_1">
      <defs>
       <path id="m0a3ce97c2a" d="M 0 0 
L 0 3.5 
" style="stroke: #000000; stroke-width: 0.8"/>
      </defs>
      <g>
       <use xlink:href="#m0a3ce97c2a" x="173.045455" y="252" style="stroke: #000000; stroke-width: 0.8"/>
      </g>
     </g>
     <g id="text_1">
      <!-- $\mathdefault{10^{-6}}$ -->
      <g transform="translate(161.295455 266.598437)scale(0.1 -0.1)">
       <defs>
        <path id="DejaVuSans-31" d="M 794 531 
L 1825 531 
L 1825 4091 
L 703 3866 
L 703 4441 
L 1819 4666 
L 2450 4666 
L 2450 531 
L 3481 531 
L 3481 0 
L 794 0 
L 794 531 
z
" transform="scale(0.015625)"/>
        <path id="DejaVuSans-30" d="M 2034 4250 
Q 1547 4250 1301 3770 
Q 1056 3291 1056 2328 
Q 1056 1369 1301 889 
Q 1547 409 2034 409 
Q 2525 409 2770 889 
Q 3016 1369 3016 2328 
Q 3016 3291 2770 3770 
Q 2525 4250 2034 4250 
z
M 2034 4750 
Q 2819 4750 3233 4129 
Q 3647 3509 3647 2328 
Q 3647 1150 3233 529 
Q 2819 -91 2034 -91 
Q 1250 -91 836 529 
Q 422 1150 422 2328 
Q 422 3509 836 4129 
Q 1250 4750 2034 4750 
z
" transform="scale(0.015625)"/>
        <path id="DejaVuSans-2212" d="M 678 2272 
L 4684 2272 
L 4684 1741 
L 678 1741 
L 678 2272 
z
" transform="scale(0.015625)"/>
        <path id="DejaVuSans-36" d="M 2113 2584 
Q 1688 2584 1439 2293 
Q 1191 2003 1191 1497 
Q 1191 994 1439 701 
Q 1688 409 2113 409 
Q 2538 409 2786 701 
Q 3034 994 3034 1497 
Q 3034 2003 2786 2293 
Q 2538 2584 2113 2584 
z
M 3366 4563 
L 3366 3988 
Q 3128 4100 2886 4159 
Q 2644 4219 2406 4219 
Q 1781 4219 1451 3797 
Q 1122 3375 1075 2522 
Q 1259 2794 1537 2939 
Q 1816 3084 2150 3084 
Q 2853 3084 3261 2657 
Q 3669 2231 3669 1497 
Q 3669 778 3244 343 
Q 2819 -91 2113 -91 
Q 1303 -91 875 529 
Q 447 1150 447 2328 
Q 447 3434 972 4092 
Q 1497 4750 2381 4750 
Q 2619 4750 2861 4703 
Q 3103 4656 3366 4563 
z
" transform="scale(0.015625)"/>
       </defs>
       <use xlink:href="#DejaVuSans-31" transform="translate(0 0.765625)"/>
       <use xlink:href="#DejaVuSans-30" transform="translate(63.623047 0.765625)"/>
       <use xlink:href="#DejaVuSans-2212" transform="translate(128.203125 39.046875)scale(0.7)"/>
       <use xlink:href="#DejaVuSans-36" transform="translate(186.855469 39.046875)scale(0.7)"/>
      </g>
     </g>
    </g>
    <g id="xtick_2">
     <g id="line2d_2">
      <g>
       <use xlink:href="#m0a3ce97c2a" x="281.746753" y="252" style="stroke: #000000; stroke-width: 0.8"/>
      </g>
     </g>
     <g id="text_2">
      <!-- $\mathdefault{10^{-5}}$ -->
      <g transform="translate(269.996753 266.598437)scale(0.1 -0.1)">
       <defs>
        <path id="DejaVuSans-35" d="M 691 4666 
L 3169 4666 
L 3169 4134 
L 1269 4134 
L 1269 2991 
Q 1406 3038 1543 3061 
Q 1681 3084 1819 3084 
Q 2600 3084 3056 2656 
Q 3513 2228 3513 1497 
Q 3513 744 3044 326 
Q 2575 -91 1722 -91 
Q 1428 -91 1123 -41 
Q 819 9 494 109 
L 494 744 
Q 775 591 1075 516 
Q 1375 441 1709 441 
Q 2250 441 2565 725 
Q 2881 1009 2881 1497 
Q 2881 1984 2565 2268 
Q 2250 2553 1709 2553 
Q 1456 2553 1204 2497 
Q 953 2441 691 2322 
L 691 4666 
z
" transform="scale(0.015625)"/>
       </defs>
       <use xlink:href="#DejaVuSans-31" transform="translate(0 0.684375)"/>
       <use xlink:href="#DejaVuSans-30" transform="translate(63.623047 0.684375)"/>
       <use xlink:href="#DejaVuSans-2212" transform="translate(128.203125 38.965625)scale(0.7)"/>
       <use xlink:href="#DejaVuSans-35" transform="translate(186.855469 38.965625)scale(0.7)"/>
      </g>
     </g>
    </g>
    <g id="xtick_3">
     <g id="line2d_3">
      <g>
       <use xlink:href="#m0a3ce97c2a" x="390.448052" y="252" style="stroke: #000000; stroke-width: 0.8"/>
      </g>
     </g>
     <g id="text_3">
      <!-- $\mathdefault{10^{-4}}$ -->
      <g transform="translate(378.698052 266.598437)scale(0.1 -0.1)">
       <defs>
        <path id="DejaVuSans-34" d="M 2419 4116 
L 825 1625 
L 2419 1625 
L 2419 4116 
z
M 2253 4666 
L 3047 4666 
L 3047 1625 
L 3713 1625 
L 3713 1100 
L 3047 1100 
L 3047 0 
L 2419 0 
L 2419 1100 
L 313 1100 
L 313 1709 
L 2253 4666 
z
" transform="scale(0.015625)"/>
       </defs>
       <use xlink:href="#DejaVuSans-31" transform="translate(0 0.684375)"/>
       <use xlink:href="#DejaVuSans-30" transform="translate(63.623047 0.684375)"/>
       <use xlink:href="#DejaVuSans-2212" transform="translate(128.203125 38.965625)scale(0.7)"/>
       <use xlink:href="#DejaVuSans-34" transform="translate(186.855469 38.965625)scale(0.7)"/>
      </g>
     </g>
    </g>
    <g id="xtick_4">
     <g id="line2d_4">
      <g>
       <use xlink:href="#m0a3ce97c2a" x="499.149351" y="252" style="stroke: #000000; stroke-width: 0.8"/>
      </g>
     </g>
     <g id="text_4">
      <!-- $\mathdefault{10^{-3}}$ -->
      <g transform="translate(487.399351 266.598437)scale(0.1 -0.1)">
       <defs>
        <path id="DejaVuSans-33" d="M 2597 2516 
Q 3050 2419 3304 2112 
Q 3559 1806 3559 1356 
Q 3559 666 3084 287 
Q 2609 -91 1734 -91 
Q 1441 -91 1130 -33 
Q 819 25 488 141 
L 488 750 
Q 750 597 1062 519 
Q 1375 441 1716 441 
Q 2309 441 2620 675 
Q 2931 909 2931 1356 
Q 2931 1769 2642 2001 
Q 2353 2234 1838 2234 
L 1294 2234 
L 1294 2753 
L 1863 2753 
Q 2328 2753 2575 2939 
Q 2822 3125 2822 3475 
Q 2822 3834 2567 4026 
Q 2313 4219 1838 4219 
Q 1578 4219 1281 4162 
Q 984 4106 628 3988 
L 628 4550 
Q 988 4650 1302 4700 
Q 1616 4750 1894 4750 
Q 2613 4750 3031 4423 
Q 3450 4097 3450 3541 
Q 3450 3153 3228 2886 
Q 3006 2619 2597 2516 
z
" transform="scale(0.015625)"/>
       </defs>
       <use xlink:href="#DejaVuSans-31" transform="translate(0 0.765625)"/>
       <use xlink:href="#DejaVuSans-30" transform="translate(63.623047 0.765625)"/>
       <use xlink:href="#DejaVuSans-2212" transform="translate(128.203125 39.046875)scale(0.7)"/>
       <use xlink:href="#DejaVuSans-33" transform="translate(186.855469 39.046875)scale(0.7)"/>
      </g>
     </g>
    </g>
    <g id="xtick_5">
     <g id="line2d_5">
      <g>
       <use xlink:href="#m0a3ce97c2a" x="607.850649" y="252" style="stroke: #000000; stroke-width: 0.8"/>
      </g>
     </g>
     <g id="text_5">
      <!-- $\mathdefault{10^{-2}}$ -->
      <g transform="translate(596.100649 266.598437)scale(0.1 -0.1)">
       <defs>
        <path id="DejaVuSans-32" d="M 1228 531 
L 3431 531 
L 3431 0 
L 469 0 
L 469 531 
Q 828 903 1448 1529 
Q 2069 2156 2228 2338 
Q 2531 2678 2651 2914 
Q 2772 3150 2772 3378 
Q 2772 3750 2511 3984 
Q 2250 4219 1831 4219 
Q 1534 4219 1204 4116 
Q 875 4013 500 3803 
L 500 4441 
Q 881 4594 1212 4672 
Q 1544 4750 1819 4750 
Q 2544 4750 2975 4387 
Q 3406 4025 3406 3419 
Q 3406 3131 3298 2873 
Q 3191 2616 2906 2266 
Q 2828 2175 2409 1742 
Q 1991 1309 1228 531 
z
" transform="scale(0.015625)"/>
       </defs>
       <use xlink:href="#DejaVuSans-31" transform="translate(0 0.765625)"/>
       <use xlink:href="#DejaVuSans-30" transform="translate(63.623047 0.765625)"/>
       <use xlink:href="#DejaVuSans-2212" transform="translate(128.203125 39.046875)scale(0.7)"/>
       <use xlink:href="#DejaVuSans-32" transform="translate(186.855469 39.046875)scale(0.7)"/>
      </g>
     </g>
    </g>
    <g id="xtick_6">
     <g id="line2d_6">
      <g>
       <use xlink:href="#m0a3ce97c2a" x="716.551948" y="252" style="stroke: #000000; stroke-width: 0.8"/>
      </g>
     </g>
     <g id="text_6">
      <!-- $\mathdefault{10^{-1}}$ -->
      <g transform="translate(704.801948 266.598437)scale(0.1 -0.1)">
       <use xlink:href="#DejaVuSans-31" transform="translate(0 0.684375)"/>
       <use xlink:href="#DejaVuSans-30" transform="translate(63.623047 0.684375)"/>
       <use xlink:href="#DejaVuSans-2212" transform="translate(128.203125 38.965625)scale(0.7)"/>
       <use xlink:href="#DejaVuSans-31" transform="translate(186.855469 38.965625)scale(0.7)"/>
      </g>
     </g>
    </g>
    <g id="xtick_7">
     <g id="line2d_7">
      <g>
       <use xlink:href="#m0a3ce97c2a" x="825.253247" y="252" style="stroke: #000000; stroke-width: 0.8"/>
      </g>
     </g>
     <g id="text_7">
      <!-- $\mathdefault{10^{0}}$ -->
      <g transform="translate(816.453247 266.598437)scale(0.1 -0.1)">
       <use xlink:href="#DejaVuSans-31" transform="translate(0 0.765625)"/>
       <use xlink:href="#DejaVuSans-30" transform="translate(63.623047 0.765625)"/>
       <use xlink:href="#DejaVuSans-30" transform="translate(128.203125 39.046875)scale(0.7)"/>
      </g>
     </g>
    </g>
    <g id="xtick_8">
     <g id="line2d_8">
      <g>
       <use xlink:href="#m0a3ce97c2a" x="933.954545" y="252" style="stroke: #000000; stroke-width: 0.8"/>
      </g>
     </g>
     <g id="text_8">
      <!-- $\mathdefault{10^{1}}$ -->
      <g transform="translate(925.154545 266.598437)scale(0.1 -0.1)">
       <use xlink:href="#DejaVuSans-31" transform="translate(0 0.684375)"/>
       <use xlink:href="#DejaVuSans-30" transform="translate(63.623047 0.684375)"/>
       <use xlink:href="#DejaVuSans-31" transform="translate(128.203125 38.965625)scale(0.7)"/>
      </g>
     </g>
    </g>
    <g id="xtick_9">
     <g id="line2d_9">
      <defs>
       <path id="m3ccb77fcd4" d="M 0 0 
L 0 2 
" style="stroke: #000000; stroke-width: 0.6"/>
      </defs>
      <g>
       <use xlink:href="#m3ccb77fcd4" x="140.323103" y="252" style="stroke: #000000; stroke-width: 0.6"/>
      </g>
     </g>
    </g>
    <g id="xtick_10">
     <g id="line2d_10">
      <g>
       <use xlink:href="#m3ccb77fcd4" x="148.930207" y="252" style="stroke: #000000; stroke-width: 0.6"/>
      </g>
     </g>
    </g>
    <g id="xtick_11">
     <g id="line2d_11">
      <g>
       <use xlink:href="#m3ccb77fcd4" x="156.20741" y="252" style="stroke: #000000; stroke-width: 0.6"/>
      </g>
     </g>
    </g>
    <g id="xtick_12">
     <g id="line2d_12">
      <g>
       <use xlink:href="#m3ccb77fcd4" x="162.51121" y="252" style="stroke: #000000; stroke-width: 0.6"/>
      </g>
     </g>
    </g>
    <g id="xtick_13">
     <g id="line2d_13">
      <g>
       <use xlink:href="#m3ccb77fcd4" x="168.071556" y="252" style="stroke: #000000; stroke-width: 0.6"/>
      </g>
     </g>
    </g>
    <g id="xtick_14">
     <g id="line2d_14">
      <g>
       <use xlink:href="#m3ccb77fcd4" x="205.767806" y="252" style="stroke: #000000; stroke-width: 0.6"/>
      </g>
     </g>
    </g>
    <g id="xtick_15">
     <g id="line2d_15">
      <g>
       <use xlink:href="#m3ccb77fcd4" x="224.909155" y="252" style="stroke: #000000; stroke-width: 0.6"/>
      </g>
     </g>
    </g>
    <g id="xtick_16">
     <g id="line2d_16">
      <g>
       <use xlink:href="#m3ccb77fcd4" x="238.490157" y="252" style="stroke: #000000; stroke-width: 0.6"/>
      </g>
     </g>
    </g>
    <g id="xtick_17">
     <g id="line2d_17">
      <g>
       <use xlink:href="#m3ccb77fcd4" x="249.024402" y="252" style="stroke: #000000; stroke-width: 0.6"/>
      </g>
     </g>
    </g>
    <g id="xtick_18">
     <g id="line2d_18">
      <g>
       <use xlink:href="#m3ccb77fcd4" x="257.631506" y="252" style="stroke: #000000; stroke-width: 0.6"/>
      </g>
     </g>
    </g>
    <g id="xtick_19">
     <g id="line2d_19">
      <g>
       <use xlink:href="#m3ccb77fcd4" x="264.908709" y="252" style="stroke: #000000; stroke-width: 0.6"/>
      </g>
     </g>
    </g>
    <g id="xtick_20">
     <g id="line2d_20">
      <g>
       <use xlink:href="#m3ccb77fcd4" x="271.212509" y="252" style="stroke: #000000; stroke-width: 0.6"/>
      </g>
     </g>
    </g>
    <g id="xtick_21">
     <g id="line2d_21">
      <g>
       <use xlink:href="#m3ccb77fcd4" x="276.772855" y="252" style="stroke: #000000; stroke-width: 0.6"/>
      </g>
     </g>
    </g>
    <g id="xtick_22">
     <g id="line2d_22">
      <g>
       <use xlink:href="#m3ccb77fcd4" x="314.469105" y="252" style="stroke: #000000; stroke-width: 0.6"/>
      </g>
     </g>
    </g>
    <g id="xtick_23">
     <g id="line2d_23">
      <g>
       <use xlink:href="#m3ccb77fcd4" x="333.610453" y="252" style="stroke: #000000; stroke-width: 0.6"/>
      </g>
     </g>
    </g>
    <g id="xtick_24">
     <g id="line2d_24">
      <g>
       <use xlink:href="#m3ccb77fcd4" x="347.191456" y="252" style="stroke: #000000; stroke-width: 0.6"/>
      </g>
     </g>
    </g>
    <g id="xtick_25">
     <g id="line2d_25">
      <g>
       <use xlink:href="#m3ccb77fcd4" x="357.7257" y="252" style="stroke: #000000; stroke-width: 0.6"/>
      </g>
     </g>
    </g>
    <g id="xtick_26">
     <g id="line2d_26">
      <g>
       <use xlink:href="#m3ccb77fcd4" x="366.332805" y="252" style="stroke: #000000; stroke-width: 0.6"/>
      </g>
     </g>
    </g>
    <g id="xtick_27">
     <g id="line2d_27">
      <g>
       <use xlink:href="#m3ccb77fcd4" x="373.610008" y="252" style="stroke: #000000; stroke-width: 0.6"/>
      </g>
     </g>
    </g>
    <g id="xtick_28">
     <g id="line2d_28">
      <g>
       <use xlink:href="#m3ccb77fcd4" x="379.913808" y="252" style="stroke: #000000; stroke-width: 0.6"/>
      </g>
     </g>
    </g>
    <g id="xtick_29">
     <g id="line2d_29">
      <g>
       <use xlink:href="#m3ccb77fcd4" x="385.474153" y="252" style="stroke: #000000; stroke-width: 0.6"/>
      </g>
     </g>
    </g>
    <g id="xtick_30">
     <g id="line2d_30">
      <g>
       <use xlink:href="#m3ccb77fcd4" x="423.170403" y="252" style="stroke: #000000; stroke-width: 0.6"/>
      </g>
     </g>
    </g>
    <g id="xtick_31">
     <g id="line2d_31">
      <g>
       <use xlink:href="#m3ccb77fcd4" x="442.311752" y="252" style="stroke: #000000; stroke-width: 0.6"/>
      </g>
     </g>
    </g>
    <g id="xtick_32">
     <g id="line2d_32">
      <g>
       <use xlink:href="#m3ccb77fcd4" x="455.892755" y="252" style="stroke: #000000; stroke-width: 0.6"/>
      </g>
     </g>
    </g>
    <g id="xtick_33">
     <g id="line2d_33">
      <g>
       <use xlink:href="#m3ccb77fcd4" x="466.426999" y="252" style="stroke: #000000; stroke-width: 0.6"/>
      </g>
     </g>
    </g>
    <g id="xtick_34">
     <g id="line2d_34">
      <g>
       <use xlink:href="#m3ccb77fcd4" x="475.034103" y="252" style="stroke: #000000; stroke-width: 0.6"/>
      </g>
     </g>
    </g>
    <g id="xtick_35">
     <g id="line2d_35">
      <g>
       <use xlink:href="#m3ccb77fcd4" x="482.311306" y="252" style="stroke: #000000; stroke-width: 0.6"/>
      </g>
     </g>
    </g>
    <g id="xtick_36">
     <g id="line2d_36">
      <g>
       <use xlink:href="#m3ccb77fcd4" x="488.615106" y="252" style="stroke: #000000; stroke-width: 0.6"/>
      </g>
     </g>
    </g>
    <g id="xtick_37">
     <g id="line2d_37">
      <g>
       <use xlink:href="#m3ccb77fcd4" x="494.175452" y="252" style="stroke: #000000; stroke-width: 0.6"/>
      </g>
     </g>
    </g>
    <g id="xtick_38">
     <g id="line2d_38">
      <g>
       <use xlink:href="#m3ccb77fcd4" x="531.871702" y="252" style="stroke: #000000; stroke-width: 0.6"/>
      </g>
     </g>
    </g>
    <g id="xtick_39">
     <g id="line2d_39">
      <g>
       <use xlink:href="#m3ccb77fcd4" x="551.013051" y="252" style="stroke: #000000; stroke-width: 0.6"/>
      </g>
     </g>
    </g>
    <g id="xtick_40">
     <g id="line2d_40">
      <g>
       <use xlink:href="#m3ccb77fcd4" x="564.594054" y="252" style="stroke: #000000; stroke-width: 0.6"/>
      </g>
     </g>
    </g>
    <g id="xtick_41">
     <g id="line2d_41">
      <g>
       <use xlink:href="#m3ccb77fcd4" x="575.128298" y="252" style="stroke: #000000; stroke-width: 0.6"/>
      </g>
     </g>
    </g>
    <g id="xtick_42">
     <g id="line2d_42">
      <g>
       <use xlink:href="#m3ccb77fcd4" x="583.735402" y="252" style="stroke: #000000; stroke-width: 0.6"/>
      </g>
     </g>
    </g>
    <g id="xtick_43">
     <g id="line2d_43">
      <g>
       <use xlink:href="#m3ccb77fcd4" x="591.012605" y="252" style="stroke: #000000; stroke-width: 0.6"/>
      </g>
     </g>
    </g>
    <g id="xtick_44">
     <g id="line2d_44">
      <g>
       <use xlink:href="#m3ccb77fcd4" x="597.316405" y="252" style="stroke: #000000; stroke-width: 0.6"/>
      </g>
     </g>
    </g>
    <g id="xtick_45">
     <g id="line2d_45">
      <g>
       <use xlink:href="#m3ccb77fcd4" x="602.876751" y="252" style="stroke: #000000; stroke-width: 0.6"/>
      </g>
     </g>
    </g>
    <g id="xtick_46">
     <g id="line2d_46">
      <g>
       <use xlink:href="#m3ccb77fcd4" x="640.573001" y="252" style="stroke: #000000; stroke-width: 0.6"/>
      </g>
     </g>
    </g>
    <g id="xtick_47">
     <g id="line2d_47">
      <g>
       <use xlink:href="#m3ccb77fcd4" x="659.714349" y="252" style="stroke: #000000; stroke-width: 0.6"/>
      </g>
     </g>
    </g>
    <g id="xtick_48">
     <g id="line2d_48">
      <g>
       <use xlink:href="#m3ccb77fcd4" x="673.295352" y="252" style="stroke: #000000; stroke-width: 0.6"/>
      </g>
     </g>
    </g>
    <g id="xtick_49">
     <g id="line2d_49">
      <g>
       <use xlink:href="#m3ccb77fcd4" x="683.829597" y="252" style="stroke: #000000; stroke-width: 0.6"/>
      </g>
     </g>
    </g>
    <g id="xtick_50">
     <g id="line2d_50">
      <g>
       <use xlink:href="#m3ccb77fcd4" x="692.436701" y="252" style="stroke: #000000; stroke-width: 0.6"/>
      </g>
     </g>
    </g>
    <g id="xtick_51">
     <g id="line2d_51">
      <g>
       <use xlink:href="#m3ccb77fcd4" x="699.713904" y="252" style="stroke: #000000; stroke-width: 0.6"/>
      </g>
     </g>
    </g>
    <g id="xtick_52">
     <g id="line2d_52">
      <g>
       <use xlink:href="#m3ccb77fcd4" x="706.017704" y="252" style="stroke: #000000; stroke-width: 0.6"/>
      </g>
     </g>
    </g>
    <g id="xtick_53">
     <g id="line2d_53">
      <g>
       <use xlink:href="#m3ccb77fcd4" x="711.578049" y="252" style="stroke: #000000; stroke-width: 0.6"/>
      </g>
     </g>
    </g>
    <g id="xtick_54">
     <g id="line2d_54">
      <g>
       <use xlink:href="#m3ccb77fcd4" x="749.2743" y="252" style="stroke: #000000; stroke-width: 0.6"/>
      </g>
     </g>
    </g>
    <g id="xtick_55">
     <g id="line2d_55">
      <g>
       <use xlink:href="#m3ccb77fcd4" x="768.415648" y="252" style="stroke: #000000; stroke-width: 0.6"/>
      </g>
     </g>
    </g>
    <g id="xtick_56">
     <g id="line2d_56">
      <g>
       <use xlink:href="#m3ccb77fcd4" x="781.996651" y="252" style="stroke: #000000; stroke-width: 0.6"/>
      </g>
     </g>
    </g>
    <g id="xtick_57">
     <g id="line2d_57">
      <g>
       <use xlink:href="#m3ccb77fcd4" x="792.530895" y="252" style="stroke: #000000; stroke-width: 0.6"/>
      </g>
     </g>
    </g>
    <g id="xtick_58">
     <g id="line2d_58">
      <g>
       <use xlink:href="#m3ccb77fcd4" x="801.138" y="252" style="stroke: #000000; stroke-width: 0.6"/>
      </g>
     </g>
    </g>
    <g id="xtick_59">
     <g id="line2d_59">
      <g>
       <use xlink:href="#m3ccb77fcd4" x="808.415203" y="252" style="stroke: #000000; stroke-width: 0.6"/>
      </g>
     </g>
    </g>
    <g id="xtick_60">
     <g id="line2d_60">
      <g>
       <use xlink:href="#m3ccb77fcd4" x="814.719002" y="252" style="stroke: #000000; stroke-width: 0.6"/>
      </g>
     </g>
    </g>
    <g id="xtick_61">
     <g id="line2d_61">
      <g>
       <use xlink:href="#m3ccb77fcd4" x="820.279348" y="252" style="stroke: #000000; stroke-width: 0.6"/>
      </g>
     </g>
    </g>
    <g id="xtick_62">
     <g id="line2d_62">
      <g>
       <use xlink:href="#m3ccb77fcd4" x="857.975598" y="252" style="stroke: #000000; stroke-width: 0.6"/>
      </g>
     </g>
    </g>
    <g id="xtick_63">
     <g id="line2d_63">
      <g>
       <use xlink:href="#m3ccb77fcd4" x="877.116947" y="252" style="stroke: #000000; stroke-width: 0.6"/>
      </g>
     </g>
    </g>
    <g id="xtick_64">
     <g id="line2d_64">
      <g>
       <use xlink:href="#m3ccb77fcd4" x="890.69795" y="252" style="stroke: #000000; stroke-width: 0.6"/>
      </g>
     </g>
    </g>
    <g id="xtick_65">
     <g id="line2d_65">
      <g>
       <use xlink:href="#m3ccb77fcd4" x="901.232194" y="252" style="stroke: #000000; stroke-width: 0.6"/>
      </g>
     </g>
    </g>
    <g id="xtick_66">
     <g id="line2d_66">
      <g>
       <use xlink:href="#m3ccb77fcd4" x="909.839298" y="252" style="stroke: #000000; stroke-width: 0.6"/>
      </g>
     </g>
    </g>
    <g id="xtick_67">
     <g id="line2d_67">
      <g>
       <use xlink:href="#m3ccb77fcd4" x="917.116501" y="252" style="stroke: #000000; stroke-width: 0.6"/>
      </g>
     </g>
    </g>
    <g id="xtick_68">
     <g id="line2d_68">
      <g>
       <use xlink:href="#m3ccb77fcd4" x="923.420301" y="252" style="stroke: #000000; stroke-width: 0.6"/>
      </g>
     </g>
    </g>
    <g id="xtick_69">
     <g id="line2d_69">
      <g>
       <use xlink:href="#m3ccb77fcd4" x="928.980647" y="252" style="stroke: #000000; stroke-width: 0.6"/>
      </g>
     </g>
    </g>
    <g id="xtick_70">
     <g id="line2d_70">
      <g>
       <use xlink:href="#m3ccb77fcd4" x="966.676897" y="252" style="stroke: #000000; stroke-width: 0.6"/>
      </g>
     </g>
    </g>
    <g id="text_9">
     <!-- hyperparameter $\lambda$ -->
     <g transform="translate(508.1 280.278125)scale(0.1 -0.1)">
      <defs>
       <path id="DejaVuSans-68" d="M 3513 2113 
L 3513 0 
L 2938 0 
L 2938 2094 
Q 2938 2591 2744 2837 
Q 2550 3084 2163 3084 
Q 1697 3084 1428 2787 
Q 1159 2491 1159 1978 
L 1159 0 
L 581 0 
L 581 4863 
L 1159 4863 
L 1159 2956 
Q 1366 3272 1645 3428 
Q 1925 3584 2291 3584 
Q 2894 3584 3203 3211 
Q 3513 2838 3513 2113 
z
" transform="scale(0.015625)"/>
       <path id="DejaVuSans-79" d="M 2059 -325 
Q 1816 -950 1584 -1140 
Q 1353 -1331 966 -1331 
L 506 -1331 
L 506 -850 
L 844 -850 
Q 1081 -850 1212 -737 
Q 1344 -625 1503 -206 
L 1606 56 
L 191 3500 
L 800 3500 
L 1894 763 
L 2988 3500 
L 3597 3500 
L 2059 -325 
z
" transform="scale(0.015625)"/>
       <path id="DejaVuSans-70" d="M 1159 525 
L 1159 -1331 
L 581 -1331 
L 581 3500 
L 1159 3500 
L 1159 2969 
Q 1341 3281 1617 3432 
Q 1894 3584 2278 3584 
Q 2916 3584 3314 3078 
Q 3713 2572 3713 1747 
Q 3713 922 3314 415 
Q 2916 -91 2278 -91 
Q 1894 -91 1617 61 
Q 1341 213 1159 525 
z
M 3116 1747 
Q 3116 2381 2855 2742 
Q 2594 3103 2138 3103 
Q 1681 3103 1420 2742 
Q 1159 2381 1159 1747 
Q 1159 1113 1420 752 
Q 1681 391 2138 391 
Q 2594 391 2855 752 
Q 3116 1113 3116 1747 
z
" transform="scale(0.015625)"/>
       <path id="DejaVuSans-65" d="M 3597 1894 
L 3597 1613 
L 953 1613 
Q 991 1019 1311 708 
Q 1631 397 2203 397 
Q 2534 397 2845 478 
Q 3156 559 3463 722 
L 3463 178 
Q 3153 47 2828 -22 
Q 2503 -91 2169 -91 
Q 1331 -91 842 396 
Q 353 884 353 1716 
Q 353 2575 817 3079 
Q 1281 3584 2069 3584 
Q 2775 3584 3186 3129 
Q 3597 2675 3597 1894 
z
M 3022 2063 
Q 3016 2534 2758 2815 
Q 2500 3097 2075 3097 
Q 1594 3097 1305 2825 
Q 1016 2553 972 2059 
L 3022 2063 
z
" transform="scale(0.015625)"/>
       <path id="DejaVuSans-72" d="M 2631 2963 
Q 2534 3019 2420 3045 
Q 2306 3072 2169 3072 
Q 1681 3072 1420 2755 
Q 1159 2438 1159 1844 
L 1159 0 
L 581 0 
L 581 3500 
L 1159 3500 
L 1159 2956 
Q 1341 3275 1631 3429 
Q 1922 3584 2338 3584 
Q 2397 3584 2469 3576 
Q 2541 3569 2628 3553 
L 2631 2963 
z
" transform="scale(0.015625)"/>
       <path id="DejaVuSans-61" d="M 2194 1759 
Q 1497 1759 1228 1600 
Q 959 1441 959 1056 
Q 959 750 1161 570 
Q 1363 391 1709 391 
Q 2188 391 2477 730 
Q 2766 1069 2766 1631 
L 2766 1759 
L 2194 1759 
z
M 3341 1997 
L 3341 0 
L 2766 0 
L 2766 531 
Q 2569 213 2275 61 
Q 1981 -91 1556 -91 
Q 1019 -91 701 211 
Q 384 513 384 1019 
Q 384 1609 779 1909 
Q 1175 2209 1959 2209 
L 2766 2209 
L 2766 2266 
Q 2766 2663 2505 2880 
Q 2244 3097 1772 3097 
Q 1472 3097 1187 3025 
Q 903 2953 641 2809 
L 641 3341 
Q 956 3463 1253 3523 
Q 1550 3584 1831 3584 
Q 2591 3584 2966 3190 
Q 3341 2797 3341 1997 
z
" transform="scale(0.015625)"/>
       <path id="DejaVuSans-6d" d="M 3328 2828 
Q 3544 3216 3844 3400 
Q 4144 3584 4550 3584 
Q 5097 3584 5394 3201 
Q 5691 2819 5691 2113 
L 5691 0 
L 5113 0 
L 5113 2094 
Q 5113 2597 4934 2840 
Q 4756 3084 4391 3084 
Q 3944 3084 3684 2787 
Q 3425 2491 3425 1978 
L 3425 0 
L 2847 0 
L 2847 2094 
Q 2847 2600 2669 2842 
Q 2491 3084 2119 3084 
Q 1678 3084 1418 2786 
Q 1159 2488 1159 1978 
L 1159 0 
L 581 0 
L 581 3500 
L 1159 3500 
L 1159 2956 
Q 1356 3278 1631 3431 
Q 1906 3584 2284 3584 
Q 2666 3584 2933 3390 
Q 3200 3197 3328 2828 
z
" transform="scale(0.015625)"/>
       <path id="DejaVuSans-74" d="M 1172 4494 
L 1172 3500 
L 2356 3500 
L 2356 3053 
L 1172 3053 
L 1172 1153 
Q 1172 725 1289 603 
Q 1406 481 1766 481 
L 2356 481 
L 2356 0 
L 1766 0 
Q 1100 0 847 248 
Q 594 497 594 1153 
L 594 3053 
L 172 3053 
L 172 3500 
L 594 3500 
L 594 4494 
L 1172 4494 
z
" transform="scale(0.015625)"/>
       <path id="DejaVuSans-20" transform="scale(0.015625)"/>
       <path id="DejaVuSans-Oblique-3bb" d="M 2350 4316 
L 3125 0 
L 2516 0 
L 2038 2588 
L 328 0 
L -281 0 
L 1903 3356 
L 1794 3975 
Q 1725 4369 1391 4369 
L 1091 4369 
L 1184 4863 
L 1550 4856 
Q 2253 4847 2350 4316 
z
" transform="scale(0.015625)"/>
      </defs>
      <use xlink:href="#DejaVuSans-68" transform="translate(0 0.015625)"/>
      <use xlink:href="#DejaVuSans-79" transform="translate(63.378906 0.015625)"/>
      <use xlink:href="#DejaVuSans-70" transform="translate(122.558594 0.015625)"/>
      <use xlink:href="#DejaVuSans-65" transform="translate(186.035156 0.015625)"/>
      <use xlink:href="#DejaVuSans-72" transform="translate(247.558594 0.015625)"/>
      <use xlink:href="#DejaVuSans-70" transform="translate(288.671875 0.015625)"/>
      <use xlink:href="#DejaVuSans-61" transform="translate(352.148438 0.015625)"/>
      <use xlink:href="#DejaVuSans-72" transform="translate(413.427734 0.015625)"/>
      <use xlink:href="#DejaVuSans-61" transform="translate(454.541016 0.015625)"/>
      <use xlink:href="#DejaVuSans-6d" transform="translate(515.820312 0.015625)"/>
      <use xlink:href="#DejaVuSans-65" transform="translate(613.232422 0.015625)"/>
      <use xlink:href="#DejaVuSans-74" transform="translate(674.755859 0.015625)"/>
      <use xlink:href="#DejaVuSans-65" transform="translate(713.964844 0.015625)"/>
      <use xlink:href="#DejaVuSans-72" transform="translate(775.488281 0.015625)"/>
      <use xlink:href="#DejaVuSans-20" transform="translate(816.601562 0.015625)"/>
      <use xlink:href="#DejaVuSans-Oblique-3bb" transform="translate(848.388672 0.015625)"/>
     </g>
    </g>
   </g>
   <g id="matplotlib.axis_2">
    <g id="ytick_1">
     <g id="line2d_71">
      <defs>
       <path id="m450dbac0fa" d="M 0 0 
L -3.5 0 
" style="stroke: #000000; stroke-width: 0.8"/>
      </defs>
      <g>
       <use xlink:href="#m450dbac0fa" x="135" y="236.905499" style="stroke: #000000; stroke-width: 0.8"/>
      </g>
     </g>
     <g id="text_10">
      <!-- −0.10 -->
      <g transform="translate(97.354687 240.704718)scale(0.1 -0.1)">
       <defs>
        <path id="DejaVuSans-2e" d="M 684 794 
L 1344 794 
L 1344 0 
L 684 0 
L 684 794 
z
" transform="scale(0.015625)"/>
       </defs>
       <use xlink:href="#DejaVuSans-2212"/>
       <use xlink:href="#DejaVuSans-30" x="83.789062"/>
       <use xlink:href="#DejaVuSans-2e" x="147.412109"/>
       <use xlink:href="#DejaVuSans-31" x="179.199219"/>
       <use xlink:href="#DejaVuSans-30" x="242.822266"/>
      </g>
     </g>
    </g>
    <g id="ytick_2">
     <g id="line2d_72">
      <g>
       <use xlink:href="#m450dbac0fa" x="135" y="192.240221" style="stroke: #000000; stroke-width: 0.8"/>
      </g>
     </g>
     <g id="text_11">
      <!-- −0.05 -->
      <g transform="translate(97.354687 196.03944)scale(0.1 -0.1)">
       <use xlink:href="#DejaVuSans-2212"/>
       <use xlink:href="#DejaVuSans-30" x="83.789062"/>
       <use xlink:href="#DejaVuSans-2e" x="147.412109"/>
       <use xlink:href="#DejaVuSans-30" x="179.199219"/>
       <use xlink:href="#DejaVuSans-35" x="242.822266"/>
      </g>
     </g>
    </g>
    <g id="ytick_3">
     <g id="line2d_73">
      <g>
       <use xlink:href="#m450dbac0fa" x="135" y="147.574942" style="stroke: #000000; stroke-width: 0.8"/>
      </g>
     </g>
     <g id="text_12">
      <!-- 0.00 -->
      <g transform="translate(105.734375 151.374161)scale(0.1 -0.1)">
       <use xlink:href="#DejaVuSans-30"/>
       <use xlink:href="#DejaVuSans-2e" x="63.623047"/>
       <use xlink:href="#DejaVuSans-30" x="95.410156"/>
       <use xlink:href="#DejaVuSans-30" x="159.033203"/>
      </g>
     </g>
    </g>
    <g id="ytick_4">
     <g id="line2d_74">
      <g>
       <use xlink:href="#m450dbac0fa" x="135" y="102.909664" style="stroke: #000000; stroke-width: 0.8"/>
      </g>
     </g>
     <g id="text_13">
      <!-- 0.05 -->
      <g transform="translate(105.734375 106.708882)scale(0.1 -0.1)">
       <use xlink:href="#DejaVuSans-30"/>
       <use xlink:href="#DejaVuSans-2e" x="63.623047"/>
       <use xlink:href="#DejaVuSans-30" x="95.410156"/>
       <use xlink:href="#DejaVuSans-35" x="159.033203"/>
      </g>
     </g>
    </g>
    <g id="ytick_5">
     <g id="line2d_75">
      <g>
       <use xlink:href="#m450dbac0fa" x="135" y="58.244385" style="stroke: #000000; stroke-width: 0.8"/>
      </g>
     </g>
     <g id="text_14">
      <!-- 0.10 -->
      <g transform="translate(105.734375 62.043604)scale(0.1 -0.1)">
       <use xlink:href="#DejaVuSans-30"/>
       <use xlink:href="#DejaVuSans-2e" x="63.623047"/>
       <use xlink:href="#DejaVuSans-31" x="95.410156"/>
       <use xlink:href="#DejaVuSans-30" x="159.033203"/>
      </g>
     </g>
    </g>
    <g id="text_15">
     <!-- slope values -->
     <g transform="translate(91.275 174.435469)rotate(-90)scale(0.1 -0.1)">
      <defs>
       <path id="DejaVuSans-73" d="M 2834 3397 
L 2834 2853 
Q 2591 2978 2328 3040 
Q 2066 3103 1784 3103 
Q 1356 3103 1142 2972 
Q 928 2841 928 2578 
Q 928 2378 1081 2264 
Q 1234 2150 1697 2047 
L 1894 2003 
Q 2506 1872 2764 1633 
Q 3022 1394 3022 966 
Q 3022 478 2636 193 
Q 2250 -91 1575 -91 
Q 1294 -91 989 -36 
Q 684 19 347 128 
L 347 722 
Q 666 556 975 473 
Q 1284 391 1588 391 
Q 1994 391 2212 530 
Q 2431 669 2431 922 
Q 2431 1156 2273 1281 
Q 2116 1406 1581 1522 
L 1381 1569 
Q 847 1681 609 1914 
Q 372 2147 372 2553 
Q 372 3047 722 3315 
Q 1072 3584 1716 3584 
Q 2034 3584 2315 3537 
Q 2597 3491 2834 3397 
z
" transform="scale(0.015625)"/>
       <path id="DejaVuSans-6c" d="M 603 4863 
L 1178 4863 
L 1178 0 
L 603 0 
L 603 4863 
z
" transform="scale(0.015625)"/>
       <path id="DejaVuSans-6f" d="M 1959 3097 
Q 1497 3097 1228 2736 
Q 959 2375 959 1747 
Q 959 1119 1226 758 
Q 1494 397 1959 397 
Q 2419 397 2687 759 
Q 2956 1122 2956 1747 
Q 2956 2369 2687 2733 
Q 2419 3097 1959 3097 
z
M 1959 3584 
Q 2709 3584 3137 3096 
Q 3566 2609 3566 1747 
Q 3566 888 3137 398 
Q 2709 -91 1959 -91 
Q 1206 -91 779 398 
Q 353 888 353 1747 
Q 353 2609 779 3096 
Q 1206 3584 1959 3584 
z
" transform="scale(0.015625)"/>
       <path id="DejaVuSans-76" d="M 191 3500 
L 800 3500 
L 1894 563 
L 2988 3500 
L 3597 3500 
L 2284 0 
L 1503 0 
L 191 3500 
z
" transform="scale(0.015625)"/>
       <path id="DejaVuSans-75" d="M 544 1381 
L 544 3500 
L 1119 3500 
L 1119 1403 
Q 1119 906 1312 657 
Q 1506 409 1894 409 
Q 2359 409 2629 706 
Q 2900 1003 2900 1516 
L 2900 3500 
L 3475 3500 
L 3475 0 
L 2900 0 
L 2900 538 
Q 2691 219 2414 64 
Q 2138 -91 1772 -91 
Q 1169 -91 856 284 
Q 544 659 544 1381 
z
M 1991 3584 
L 1991 3584 
z
" transform="scale(0.015625)"/>
      </defs>
      <use xlink:href="#DejaVuSans-73"/>
      <use xlink:href="#DejaVuSans-6c" x="52.099609"/>
      <use xlink:href="#DejaVuSans-6f" x="79.882812"/>
      <use xlink:href="#DejaVuSans-70" x="141.064453"/>
      <use xlink:href="#DejaVuSans-65" x="204.541016"/>
      <use xlink:href="#DejaVuSans-20" x="266.064453"/>
      <use xlink:href="#DejaVuSans-76" x="297.851562"/>
      <use xlink:href="#DejaVuSans-61" x="357.03125"/>
      <use xlink:href="#DejaVuSans-6c" x="418.310547"/>
      <use xlink:href="#DejaVuSans-75" x="446.09375"/>
      <use xlink:href="#DejaVuSans-65" x="509.472656"/>
      <use xlink:href="#DejaVuSans-73" x="570.996094"/>
     </g>
    </g>
   </g>
   <g id="line2d_76">
    <path d="M 173.045455 122.26285 
L 352.757652 122.150354 
L 406.288945 121.914567 
L 433.054591 121.394467 
L 452.17291 120.940602 
L 471.291229 120.252701 
L 486.585884 119.462315 
L 498.056875 118.707427 
L 505.704203 118.622527 
L 520.998858 118.66625 
L 540.117177 119.192019 
L 543.940841 119.343981 
L 551.588168 120.188445 
L 559.235496 121.298028 
L 566.882823 122.614578 
L 574.530151 124.033576 
L 582.177478 125.457999 
L 586.001142 126.249776 
L 589.824806 127.243287 
L 593.64847 128.431609 
L 601.295797 131.298739 
L 605.119461 132.916404 
L 608.943125 134.670272 
L 612.766788 136.572169 
L 616.590452 138.626215 
L 620.414116 140.862603 
L 624.23778 143.287662 
L 628.061444 145.917316 
L 631.885107 147.574942 
L 933.954545 147.574942 
L 933.954545 147.574942 
" clip-path="url(#pe065dd3bac)" style="fill: none; stroke: #1f77b4; stroke-width: 1.5; stroke-linecap: square"/>
   </g>
   <g id="line2d_77">
    <path d="M 173.045455 44.443636 
L 218.92942 44.731294 
L 249.51873 45.153139 
L 272.460713 45.706666 
L 287.755368 46.256915 
L 303.050023 47.017703 
L 314.521014 47.773857 
L 325.992005 48.737993 
L 337.462997 49.967312 
L 345.110324 50.969434 
L 352.757652 52.14778 
L 360.404979 53.533337 
L 368.052307 55.162545 
L 375.699635 57.078247 
L 383.346962 59.330825 
L 390.99429 61.962165 
L 394.817953 63.439626 
L 398.641617 65.041722 
L 402.465281 66.778993 
L 406.288945 68.664246 
L 410.112608 70.712023 
L 413.936272 72.932562 
L 417.759936 75.340439 
L 421.5836 77.951459 
L 425.407264 80.78276 
L 429.230927 83.852926 
L 433.054591 85.987377 
L 440.701919 86.963099 
L 448.349246 88.183001 
L 455.996574 89.619753 
L 463.643901 91.309145 
L 471.291229 93.295716 
L 478.938556 95.631485 
L 486.585884 98.378115 
L 490.409548 99.927473 
L 498.056875 103.405739 
L 509.527867 109.997789 
L 513.35153 112.469827 
L 517.175194 115.150418 
L 520.998858 118.071478 
L 524.822522 121.261783 
L 528.646185 124.721232 
L 532.469849 128.472568 
L 536.293513 132.540372 
L 540.117177 136.921047 
L 543.940841 141.744017 
L 547.764504 147.574942 
L 933.954545 147.574942 
L 933.954545 147.574942 
" clip-path="url(#pe065dd3bac)" style="fill: none; stroke: #ff7f0e; stroke-width: 1.5; stroke-linecap: square"/>
   </g>
   <g id="line2d_78">
    <path d="M 173.045455 213.453555 
L 260.989721 213.284546 
L 303.050023 212.996967 
L 329.815669 212.624935 
L 352.757652 212.086997 
L 371.875971 211.389208 
L 387.170626 210.581673 
L 398.641617 209.632737 
L 406.288945 208.854848 
L 413.936272 207.913446 
L 421.5836 206.8065 
L 429.230927 205.504898 
L 436.878255 203.823259 
L 440.701919 202.85633 
L 448.349246 200.598491 
L 455.996574 197.941295 
L 459.820238 196.442299 
L 463.643901 194.816845 
L 467.467565 193.054131 
L 471.291229 191.142839 
L 475.114893 189.070309 
L 478.938556 186.822934 
L 482.76222 184.38579 
L 486.585884 181.74323 
L 490.409548 178.877741 
L 494.233212 175.770547 
L 498.056875 172.321074 
L 501.880539 168.672061 
L 505.704203 164.734508 
L 509.527867 160.466047 
L 513.35153 155.837206 
L 517.175194 150.817896 
L 520.998858 147.574942 
L 933.954545 147.574942 
L 933.954545 147.574942 
" clip-path="url(#pe065dd3bac)" style="fill: none; stroke: #2ca02c; stroke-width: 1.5; stroke-linecap: square"/>
   </g>
   <g id="line2d_79">
    <path d="M 173.045455 242.116364 
L 249.51873 241.933601 
L 287.755368 241.649279 
L 314.521014 241.258517 
L 337.462997 240.693515 
L 352.757652 240.131835 
L 368.052307 239.355239 
L 379.523298 238.583371 
L 390.99429 237.602171 
L 402.465281 236.356784 
L 410.112608 235.331934 
L 417.759936 234.121261 
L 425.407264 232.697695 
L 440.701919 229.468731 
L 448.349246 227.548107 
L 455.996574 225.289289 
L 463.643901 222.633318 
L 467.467565 221.134492 
L 471.291229 219.509778 
L 475.114893 217.748038 
L 478.938556 215.837689 
L 482.76222 213.765476 
L 486.585884 211.519259 
L 490.409548 209.083594 
L 494.233212 206.442625 
L 501.880539 200.47213 
L 505.704203 197.061173 
L 509.527867 193.336048 
L 513.35153 189.295548 
L 520.998858 180.367706 
L 524.822522 175.76307 
L 528.646185 170.7706 
L 532.469849 165.354998 
L 536.293513 159.483675 
L 540.117177 153.24844 
L 543.940841 147.574942 
L 933.954545 147.574942 
L 933.954545 147.574942 
" clip-path="url(#pe065dd3bac)" style="fill: none; stroke: #d62728; stroke-width: 1.5; stroke-linecap: square"/>
   </g>
   <g id="line2d_80">
    <path d="M 173.045455 157.305956 
L 257.166058 157.142239 
L 299.226359 156.859279 
L 325.992005 156.493223 
L 348.933988 155.963921 
L 368.052307 155.27734 
L 383.346962 154.488467 
L 394.817953 153.681599 
L 406.288945 152.648055 
L 417.759936 151.389101 
L 425.407264 150.362822 
L 433.054591 149.137596 
L 440.701919 147.622362 
L 452.17291 147.574942 
L 933.954545 147.574942 
L 933.954545 147.574942 
" clip-path="url(#pe065dd3bac)" style="fill: none; stroke: #9467bd; stroke-width: 1.5; stroke-linecap: square"/>
   </g>
   <g id="line2d_81">
    <path d="M 173.045455 74.843327 
L 253.342394 75.020413 
L 295.402695 75.331798 
L 322.168342 75.734624 
L 341.286661 76.199359 
L 360.404979 76.896124 
L 375.699635 77.6967 
L 387.170626 78.4986 
L 398.641617 79.676114 
L 425.407264 82.965766 
L 433.054591 84.105813 
L 444.525582 85.264933 
L 452.17291 86.165242 
L 459.820238 87.223867 
L 467.467565 88.468689 
L 475.114893 89.932361 
L 482.76222 91.653467 
L 490.409548 93.677147 
L 494.233212 94.818745 
L 498.056875 96.100414 
L 513.35153 99.676118 
L 520.998858 101.881868 
L 528.646185 104.546398 
L 532.469849 106.049612 
L 536.293513 107.679589 
L 540.117177 109.458926 
L 547.764504 113.394775 
L 551.588168 116.547145 
L 555.411832 119.947468 
L 559.235496 123.624911 
L 563.059159 127.612581 
L 566.882823 131.93665 
L 570.706487 136.625496 
L 574.530151 138.818582 
L 582.177478 141.423964 
L 586.001142 143.49663 
L 589.824806 146.133225 
L 593.64847 147.574942 
L 933.954545 147.574942 
L 933.954545 147.574942 
" clip-path="url(#pe065dd3bac)" style="fill: none; stroke: #8c564b; stroke-width: 1.5; stroke-linecap: square"/>
   </g>
   <g id="line2d_82">
    <path d="M 173.045455 60.799743 
L 245.695066 60.978528 
L 283.931704 61.262578 
L 310.69735 61.652953 
L 333.639333 62.217426 
L 348.933988 62.778556 
L 364.228643 63.554385 
L 375.699635 64.32549 
L 387.170626 65.314855 
L 394.817953 66.21999 
L 417.759936 69.329572 
L 425.407264 70.55148 
L 433.054591 71.835925 
L 440.701919 72.702864 
L 448.349246 73.756993 
L 455.996574 74.997586 
L 463.643901 76.456339 
L 471.291229 78.171603 
L 478.938556 80.188508 
L 486.585884 82.560075 
L 494.233212 85.348701 
L 498.056875 86.940136 
L 505.704203 89.431639 
L 513.35153 92.244841 
L 517.175194 93.831831 
L 520.998858 95.560488 
L 524.822522 97.447487 
L 528.646185 99.493714 
L 532.469849 101.712484 
L 536.293513 104.118497 
L 540.117177 106.776334 
L 543.940841 109.761503 
L 547.764504 112.986756 
L 551.588168 117.376691 
L 555.411832 122.16139 
L 559.235496 127.346622 
L 563.059159 132.969323 
L 566.882823 139.066402 
L 570.706487 145.677883 
L 574.530151 147.574942 
L 933.954545 147.574942 
L 933.954545 147.574942 
" clip-path="url(#pe065dd3bac)" style="fill: none; stroke: #e377c2; stroke-width: 1.5; stroke-linecap: square"/>
   </g>
   <g id="line2d_83">
    <path d="M 173.045455 86.769827 
L 211.282092 87.091179 
L 238.047739 87.53282 
L 257.166058 88.042336 
L 272.460713 88.627764 
L 287.755368 89.437191 
L 299.226359 90.241688 
L 310.69735 91.267462 
L 322.168342 92.575376 
L 329.815669 93.641566 
L 337.462997 94.89525 
L 345.110324 96.369388 
L 352.757652 98.102753 
L 360.404979 100.140929 
L 368.052307 102.537518 
L 375.699635 105.355546 
L 379.523298 106.945275 
L 383.346962 108.669122 
L 387.170626 110.542674 
L 390.99429 112.604079 
L 394.817953 114.839397 
L 398.641617 117.263313 
L 402.465281 119.891712 
L 406.288945 122.707497 
L 410.112608 125.676508 
L 413.936272 128.896002 
L 417.759936 132.387113 
L 421.5836 136.172754 
L 425.407264 140.277774 
L 429.230927 144.729118 
L 433.054591 147.574942 
L 933.954545 147.574942 
L 933.954545 147.574942 
" clip-path="url(#pe065dd3bac)" style="fill: none; stroke: #7f7f7f; stroke-width: 1.5; stroke-linecap: square"/>
   </g>
   <g id="line2d_84">
    <path d="M 173.045455 165.95544 
L 215.105756 165.666109 
L 241.871402 165.291815 
L 264.813385 164.750594 
L 283.931704 164.04856 
L 299.226359 163.24193 
L 310.69735 162.440212 
L 322.168342 161.41798 
L 333.639333 160.11459 
L 341.286661 159.052083 
L 348.933988 157.802734 
L 356.581316 156.333687 
L 364.228643 154.60631 
L 371.875971 152.575173 
L 379.523298 150.186862 
L 387.170626 147.574942 
L 933.954545 147.574942 
L 933.954545 147.574942 
" clip-path="url(#pe065dd3bac)" style="fill: none; stroke: #bcbd22; stroke-width: 1.5; stroke-linecap: square"/>
   </g>
   <g id="line2d_85">
    <path d="M 173.045455 58.540048 
L 195.987437 58.950055 
L 215.105756 59.481889 
L 230.400411 60.092961 
L 245.695066 60.93784 
L 257.166058 61.777574 
L 268.637049 62.848277 
L 280.10804 64.213484 
L 287.755368 65.326375 
L 295.402695 66.634966 
L 303.050023 68.173672 
L 310.69735 69.982959 
L 318.344678 72.110407 
L 325.992005 74.611967 
L 329.815669 76.023166 
L 333.639333 77.553444 
L 337.462997 79.212804 
L 341.286661 81.012158 
L 345.110324 82.963316 
L 348.933988 85.079085 
L 352.757652 87.373353 
L 356.581316 89.861179 
L 360.404979 92.558893 
L 364.228643 95.484201 
L 368.052307 98.656306 
L 371.875971 102.096029 
L 375.699635 105.825947 
L 379.523298 109.870543 
L 383.346962 114.256365 
L 387.170626 119.017267 
L 390.99429 124.215174 
L 394.817953 129.851607 
L 398.641617 135.963644 
L 402.465281 142.591248 
L 406.288945 147.574942 
L 933.954545 147.574942 
L 933.954545 147.574942 
" clip-path="url(#pe065dd3bac)" style="fill: none; stroke: #17becf; stroke-width: 1.5; stroke-linecap: square"/>
   </g>
   <g id="patch_3">
    <path d="M 135 252 
L 135 34.56 
" style="fill: none; stroke: #000000; stroke-width: 0.8; stroke-linejoin: miter; stroke-linecap: square"/>
   </g>
   <g id="patch_4">
    <path d="M 972 252 
L 972 34.56 
" style="fill: none; stroke: #000000; stroke-width: 0.8; stroke-linejoin: miter; stroke-linecap: square"/>
   </g>
   <g id="patch_5">
    <path d="M 135 252 
L 972 252 
" style="fill: none; stroke: #000000; stroke-width: 0.8; stroke-linejoin: miter; stroke-linecap: square"/>
   </g>
   <g id="patch_6">
    <path d="M 135 34.56 
L 972 34.56 
" style="fill: none; stroke: #000000; stroke-width: 0.8; stroke-linejoin: miter; stroke-linecap: square"/>
   </g>
   <g id="legend_1">
    <g id="patch_7">
     <path d="M 838.15625 191.844375 
L 965 191.844375 
Q 967 191.844375 967 189.844375 
L 967 41.56 
Q 967 39.56 965 39.56 
L 838.15625 39.56 
Q 836.15625 39.56 836.15625 41.56 
L 836.15625 189.844375 
Q 836.15625 191.844375 838.15625 191.844375 
z
" style="fill: #ffffff; opacity: 0.8; stroke: #cccccc; stroke-linejoin: miter"/>
    </g>
    <g id="line2d_86">
     <path d="M 840.15625 47.658437 
L 850.15625 47.658437 
L 860.15625 47.658437 
" style="fill: none; stroke: #1f77b4; stroke-width: 1.5; stroke-linecap: square"/>
    </g>
    <g id="text_16">
     <!-- Fireplaces -->
     <g transform="translate(868.15625 51.158437)scale(0.1 -0.1)">
      <defs>
       <path id="DejaVuSans-46" d="M 628 4666 
L 3309 4666 
L 3309 4134 
L 1259 4134 
L 1259 2759 
L 3109 2759 
L 3109 2228 
L 1259 2228 
L 1259 0 
L 628 0 
L 628 4666 
z
" transform="scale(0.015625)"/>
       <path id="DejaVuSans-69" d="M 603 3500 
L 1178 3500 
L 1178 0 
L 603 0 
L 603 3500 
z
M 603 4863 
L 1178 4863 
L 1178 4134 
L 603 4134 
L 603 4863 
z
" transform="scale(0.015625)"/>
       <path id="DejaVuSans-63" d="M 3122 3366 
L 3122 2828 
Q 2878 2963 2633 3030 
Q 2388 3097 2138 3097 
Q 1578 3097 1268 2742 
Q 959 2388 959 1747 
Q 959 1106 1268 751 
Q 1578 397 2138 397 
Q 2388 397 2633 464 
Q 2878 531 3122 666 
L 3122 134 
Q 2881 22 2623 -34 
Q 2366 -91 2075 -91 
Q 1284 -91 818 406 
Q 353 903 353 1747 
Q 353 2603 823 3093 
Q 1294 3584 2113 3584 
Q 2378 3584 2631 3529 
Q 2884 3475 3122 3366 
z
" transform="scale(0.015625)"/>
      </defs>
      <use xlink:href="#DejaVuSans-46"/>
      <use xlink:href="#DejaVuSans-69" x="50.269531"/>
      <use xlink:href="#DejaVuSans-72" x="78.052734"/>
      <use xlink:href="#DejaVuSans-65" x="116.916016"/>
      <use xlink:href="#DejaVuSans-70" x="178.439453"/>
      <use xlink:href="#DejaVuSans-6c" x="241.916016"/>
      <use xlink:href="#DejaVuSans-61" x="269.699219"/>
      <use xlink:href="#DejaVuSans-63" x="330.978516"/>
      <use xlink:href="#DejaVuSans-65" x="385.958984"/>
      <use xlink:href="#DejaVuSans-73" x="447.482422"/>
     </g>
    </g>
    <g id="line2d_87">
     <path d="M 840.15625 62.336563 
L 850.15625 62.336563 
L 860.15625 62.336563 
" style="fill: none; stroke: #ff7f0e; stroke-width: 1.5; stroke-linecap: square"/>
    </g>
    <g id="text_17">
     <!-- Bsmt_Y -->
     <g transform="translate(868.15625 65.836563)scale(0.1 -0.1)">
      <defs>
       <path id="DejaVuSans-42" d="M 1259 2228 
L 1259 519 
L 2272 519 
Q 2781 519 3026 730 
Q 3272 941 3272 1375 
Q 3272 1813 3026 2020 
Q 2781 2228 2272 2228 
L 1259 2228 
z
M 1259 4147 
L 1259 2741 
L 2194 2741 
Q 2656 2741 2882 2914 
Q 3109 3088 3109 3444 
Q 3109 3797 2882 3972 
Q 2656 4147 2194 4147 
L 1259 4147 
z
M 628 4666 
L 2241 4666 
Q 2963 4666 3353 4366 
Q 3744 4066 3744 3513 
Q 3744 3084 3544 2831 
Q 3344 2578 2956 2516 
Q 3422 2416 3680 2098 
Q 3938 1781 3938 1306 
Q 3938 681 3513 340 
Q 3088 0 2303 0 
L 628 0 
L 628 4666 
z
" transform="scale(0.015625)"/>
       <path id="DejaVuSans-5f" d="M 3263 -1063 
L 3263 -1509 
L -63 -1509 
L -63 -1063 
L 3263 -1063 
z
" transform="scale(0.015625)"/>
       <path id="DejaVuSans-59" d="M -13 4666 
L 666 4666 
L 1959 2747 
L 3244 4666 
L 3922 4666 
L 2272 2222 
L 2272 0 
L 1638 0 
L 1638 2222 
L -13 4666 
z
" transform="scale(0.015625)"/>
      </defs>
      <use xlink:href="#DejaVuSans-42"/>
      <use xlink:href="#DejaVuSans-73" x="68.603516"/>
      <use xlink:href="#DejaVuSans-6d" x="120.703125"/>
      <use xlink:href="#DejaVuSans-74" x="218.115234"/>
      <use xlink:href="#DejaVuSans-5f" x="257.324219"/>
      <use xlink:href="#DejaVuSans-59" x="307.324219"/>
     </g>
    </g>
    <g id="line2d_88">
     <path d="M 840.15625 77.292812 
L 850.15625 77.292812 
L 860.15625 77.292812 
" style="fill: none; stroke: #2ca02c; stroke-width: 1.5; stroke-linecap: square"/>
    </g>
    <g id="text_18">
     <!-- BldgType_2fmCon -->
     <g transform="translate(868.15625 80.792812)scale(0.1 -0.1)">
      <defs>
       <path id="DejaVuSans-64" d="M 2906 2969 
L 2906 4863 
L 3481 4863 
L 3481 0 
L 2906 0 
L 2906 525 
Q 2725 213 2448 61 
Q 2172 -91 1784 -91 
Q 1150 -91 751 415 
Q 353 922 353 1747 
Q 353 2572 751 3078 
Q 1150 3584 1784 3584 
Q 2172 3584 2448 3432 
Q 2725 3281 2906 2969 
z
M 947 1747 
Q 947 1113 1208 752 
Q 1469 391 1925 391 
Q 2381 391 2643 752 
Q 2906 1113 2906 1747 
Q 2906 2381 2643 2742 
Q 2381 3103 1925 3103 
Q 1469 3103 1208 2742 
Q 947 2381 947 1747 
z
" transform="scale(0.015625)"/>
       <path id="DejaVuSans-67" d="M 2906 1791 
Q 2906 2416 2648 2759 
Q 2391 3103 1925 3103 
Q 1463 3103 1205 2759 
Q 947 2416 947 1791 
Q 947 1169 1205 825 
Q 1463 481 1925 481 
Q 2391 481 2648 825 
Q 2906 1169 2906 1791 
z
M 3481 434 
Q 3481 -459 3084 -895 
Q 2688 -1331 1869 -1331 
Q 1566 -1331 1297 -1286 
Q 1028 -1241 775 -1147 
L 775 -588 
Q 1028 -725 1275 -790 
Q 1522 -856 1778 -856 
Q 2344 -856 2625 -561 
Q 2906 -266 2906 331 
L 2906 616 
Q 2728 306 2450 153 
Q 2172 0 1784 0 
Q 1141 0 747 490 
Q 353 981 353 1791 
Q 353 2603 747 3093 
Q 1141 3584 1784 3584 
Q 2172 3584 2450 3431 
Q 2728 3278 2906 2969 
L 2906 3500 
L 3481 3500 
L 3481 434 
z
" transform="scale(0.015625)"/>
       <path id="DejaVuSans-54" d="M -19 4666 
L 3928 4666 
L 3928 4134 
L 2272 4134 
L 2272 0 
L 1638 0 
L 1638 4134 
L -19 4134 
L -19 4666 
z
" transform="scale(0.015625)"/>
       <path id="DejaVuSans-66" d="M 2375 4863 
L 2375 4384 
L 1825 4384 
Q 1516 4384 1395 4259 
Q 1275 4134 1275 3809 
L 1275 3500 
L 2222 3500 
L 2222 3053 
L 1275 3053 
L 1275 0 
L 697 0 
L 697 3053 
L 147 3053 
L 147 3500 
L 697 3500 
L 697 3744 
Q 697 4328 969 4595 
Q 1241 4863 1831 4863 
L 2375 4863 
z
" transform="scale(0.015625)"/>
       <path id="DejaVuSans-43" d="M 4122 4306 
L 4122 3641 
Q 3803 3938 3442 4084 
Q 3081 4231 2675 4231 
Q 1875 4231 1450 3742 
Q 1025 3253 1025 2328 
Q 1025 1406 1450 917 
Q 1875 428 2675 428 
Q 3081 428 3442 575 
Q 3803 722 4122 1019 
L 4122 359 
Q 3791 134 3420 21 
Q 3050 -91 2638 -91 
Q 1578 -91 968 557 
Q 359 1206 359 2328 
Q 359 3453 968 4101 
Q 1578 4750 2638 4750 
Q 3056 4750 3426 4639 
Q 3797 4528 4122 4306 
z
" transform="scale(0.015625)"/>
       <path id="DejaVuSans-6e" d="M 3513 2113 
L 3513 0 
L 2938 0 
L 2938 2094 
Q 2938 2591 2744 2837 
Q 2550 3084 2163 3084 
Q 1697 3084 1428 2787 
Q 1159 2491 1159 1978 
L 1159 0 
L 581 0 
L 581 3500 
L 1159 3500 
L 1159 2956 
Q 1366 3272 1645 3428 
Q 1925 3584 2291 3584 
Q 2894 3584 3203 3211 
Q 3513 2838 3513 2113 
z
" transform="scale(0.015625)"/>
      </defs>
      <use xlink:href="#DejaVuSans-42"/>
      <use xlink:href="#DejaVuSans-6c" x="68.603516"/>
      <use xlink:href="#DejaVuSans-64" x="96.386719"/>
      <use xlink:href="#DejaVuSans-67" x="159.863281"/>
      <use xlink:href="#DejaVuSans-54" x="223.339844"/>
      <use xlink:href="#DejaVuSans-79" x="268.798828"/>
      <use xlink:href="#DejaVuSans-70" x="327.978516"/>
      <use xlink:href="#DejaVuSans-65" x="391.455078"/>
      <use xlink:href="#DejaVuSans-5f" x="452.978516"/>
      <use xlink:href="#DejaVuSans-32" x="502.978516"/>
      <use xlink:href="#DejaVuSans-66" x="566.601562"/>
      <use xlink:href="#DejaVuSans-6d" x="601.806641"/>
      <use xlink:href="#DejaVuSans-43" x="699.21875"/>
      <use xlink:href="#DejaVuSans-6f" x="769.042969"/>
      <use xlink:href="#DejaVuSans-6e" x="830.224609"/>
     </g>
    </g>
    <g id="line2d_89">
     <path d="M 840.15625 92.249063 
L 850.15625 92.249063 
L 860.15625 92.249063 
" style="fill: none; stroke: #d62728; stroke-width: 1.5; stroke-linecap: square"/>
    </g>
    <g id="text_19">
     <!-- BldgType_Duplex -->
     <g transform="translate(868.15625 95.749063)scale(0.1 -0.1)">
      <defs>
       <path id="DejaVuSans-44" d="M 1259 4147 
L 1259 519 
L 2022 519 
Q 2988 519 3436 956 
Q 3884 1394 3884 2338 
Q 3884 3275 3436 3711 
Q 2988 4147 2022 4147 
L 1259 4147 
z
M 628 4666 
L 1925 4666 
Q 3281 4666 3915 4102 
Q 4550 3538 4550 2338 
Q 4550 1131 3912 565 
Q 3275 0 1925 0 
L 628 0 
L 628 4666 
z
" transform="scale(0.015625)"/>
       <path id="DejaVuSans-78" d="M 3513 3500 
L 2247 1797 
L 3578 0 
L 2900 0 
L 1881 1375 
L 863 0 
L 184 0 
L 1544 1831 
L 300 3500 
L 978 3500 
L 1906 2253 
L 2834 3500 
L 3513 3500 
z
" transform="scale(0.015625)"/>
      </defs>
      <use xlink:href="#DejaVuSans-42"/>
      <use xlink:href="#DejaVuSans-6c" x="68.603516"/>
      <use xlink:href="#DejaVuSans-64" x="96.386719"/>
      <use xlink:href="#DejaVuSans-67" x="159.863281"/>
      <use xlink:href="#DejaVuSans-54" x="223.339844"/>
      <use xlink:href="#DejaVuSans-79" x="268.798828"/>
      <use xlink:href="#DejaVuSans-70" x="327.978516"/>
      <use xlink:href="#DejaVuSans-65" x="391.455078"/>
      <use xlink:href="#DejaVuSans-5f" x="452.978516"/>
      <use xlink:href="#DejaVuSans-44" x="502.978516"/>
      <use xlink:href="#DejaVuSans-75" x="579.980469"/>
      <use xlink:href="#DejaVuSans-70" x="643.359375"/>
      <use xlink:href="#DejaVuSans-6c" x="706.835938"/>
      <use xlink:href="#DejaVuSans-65" x="734.619141"/>
      <use xlink:href="#DejaVuSans-78" x="794.392578"/>
     </g>
    </g>
    <g id="line2d_90">
     <path d="M 840.15625 107.205312 
L 850.15625 107.205312 
L 860.15625 107.205312 
" style="fill: none; stroke: #9467bd; stroke-width: 1.5; stroke-linecap: square"/>
    </g>
    <g id="text_20">
     <!-- BldgType_Twnhs -->
     <g transform="translate(868.15625 110.705312)scale(0.1 -0.1)">
      <defs>
       <path id="DejaVuSans-77" d="M 269 3500 
L 844 3500 
L 1563 769 
L 2278 3500 
L 2956 3500 
L 3675 769 
L 4391 3500 
L 4966 3500 
L 4050 0 
L 3372 0 
L 2619 2869 
L 1863 0 
L 1184 0 
L 269 3500 
z
" transform="scale(0.015625)"/>
      </defs>
      <use xlink:href="#DejaVuSans-42"/>
      <use xlink:href="#DejaVuSans-6c" x="68.603516"/>
      <use xlink:href="#DejaVuSans-64" x="96.386719"/>
      <use xlink:href="#DejaVuSans-67" x="159.863281"/>
      <use xlink:href="#DejaVuSans-54" x="223.339844"/>
      <use xlink:href="#DejaVuSans-79" x="268.798828"/>
      <use xlink:href="#DejaVuSans-70" x="327.978516"/>
      <use xlink:href="#DejaVuSans-65" x="391.455078"/>
      <use xlink:href="#DejaVuSans-5f" x="452.978516"/>
      <use xlink:href="#DejaVuSans-54" x="502.978516"/>
      <use xlink:href="#DejaVuSans-77" x="547.5625"/>
      <use xlink:href="#DejaVuSans-6e" x="629.349609"/>
      <use xlink:href="#DejaVuSans-68" x="692.728516"/>
      <use xlink:href="#DejaVuSans-73" x="756.107422"/>
     </g>
    </g>
    <g id="line2d_91">
     <path d="M 840.15625 122.161563 
L 850.15625 122.161563 
L 860.15625 122.161563 
" style="fill: none; stroke: #8c564b; stroke-width: 1.5; stroke-linecap: square"/>
    </g>
    <g id="text_21">
     <!-- Foundation_CBlock -->
     <g transform="translate(868.15625 125.661563)scale(0.1 -0.1)">
      <defs>
       <path id="DejaVuSans-6b" d="M 581 4863 
L 1159 4863 
L 1159 1991 
L 2875 3500 
L 3609 3500 
L 1753 1863 
L 3688 0 
L 2938 0 
L 1159 1709 
L 1159 0 
L 581 0 
L 581 4863 
z
" transform="scale(0.015625)"/>
      </defs>
      <use xlink:href="#DejaVuSans-46"/>
      <use xlink:href="#DejaVuSans-6f" x="53.894531"/>
      <use xlink:href="#DejaVuSans-75" x="115.076172"/>
      <use xlink:href="#DejaVuSans-6e" x="178.455078"/>
      <use xlink:href="#DejaVuSans-64" x="241.833984"/>
      <use xlink:href="#DejaVuSans-61" x="305.310547"/>
      <use xlink:href="#DejaVuSans-74" x="366.589844"/>
      <use xlink:href="#DejaVuSans-69" x="405.798828"/>
      <use xlink:href="#DejaVuSans-6f" x="433.582031"/>
      <use xlink:href="#DejaVuSans-6e" x="494.763672"/>
      <use xlink:href="#DejaVuSans-5f" x="558.142578"/>
      <use xlink:href="#DejaVuSans-43" x="608.142578"/>
      <use xlink:href="#DejaVuSans-42" x="677.966797"/>
      <use xlink:href="#DejaVuSans-6c" x="746.570312"/>
      <use xlink:href="#DejaVuSans-6f" x="774.353516"/>
      <use xlink:href="#DejaVuSans-63" x="835.535156"/>
      <use xlink:href="#DejaVuSans-6b" x="890.515625"/>
     </g>
    </g>
    <g id="line2d_92">
     <path d="M 840.15625 137.117813 
L 850.15625 137.117813 
L 860.15625 137.117813 
" style="fill: none; stroke: #e377c2; stroke-width: 1.5; stroke-linecap: square"/>
    </g>
    <g id="text_22">
     <!-- Foundation_PConc -->
     <g transform="translate(868.15625 140.617813)scale(0.1 -0.1)">
      <defs>
       <path id="DejaVuSans-50" d="M 1259 4147 
L 1259 2394 
L 2053 2394 
Q 2494 2394 2734 2622 
Q 2975 2850 2975 3272 
Q 2975 3691 2734 3919 
Q 2494 4147 2053 4147 
L 1259 4147 
z
M 628 4666 
L 2053 4666 
Q 2838 4666 3239 4311 
Q 3641 3956 3641 3272 
Q 3641 2581 3239 2228 
Q 2838 1875 2053 1875 
L 1259 1875 
L 1259 0 
L 628 0 
L 628 4666 
z
" transform="scale(0.015625)"/>
      </defs>
      <use xlink:href="#DejaVuSans-46"/>
      <use xlink:href="#DejaVuSans-6f" x="53.894531"/>
      <use xlink:href="#DejaVuSans-75" x="115.076172"/>
      <use xlink:href="#DejaVuSans-6e" x="178.455078"/>
      <use xlink:href="#DejaVuSans-64" x="241.833984"/>
      <use xlink:href="#DejaVuSans-61" x="305.310547"/>
      <use xlink:href="#DejaVuSans-74" x="366.589844"/>
      <use xlink:href="#DejaVuSans-69" x="405.798828"/>
      <use xlink:href="#DejaVuSans-6f" x="433.582031"/>
      <use xlink:href="#DejaVuSans-6e" x="494.763672"/>
      <use xlink:href="#DejaVuSans-5f" x="558.142578"/>
      <use xlink:href="#DejaVuSans-50" x="608.142578"/>
      <use xlink:href="#DejaVuSans-43" x="668.445312"/>
      <use xlink:href="#DejaVuSans-6f" x="738.269531"/>
      <use xlink:href="#DejaVuSans-6e" x="799.451172"/>
      <use xlink:href="#DejaVuSans-63" x="862.830078"/>
     </g>
    </g>
    <g id="line2d_93">
     <path d="M 840.15625 152.074062 
L 850.15625 152.074062 
L 860.15625 152.074062 
" style="fill: none; stroke: #7f7f7f; stroke-width: 1.5; stroke-linecap: square"/>
    </g>
    <g id="text_23">
     <!-- Foundation_Slab -->
     <g transform="translate(868.15625 155.574062)scale(0.1 -0.1)">
      <defs>
       <path id="DejaVuSans-53" d="M 3425 4513 
L 3425 3897 
Q 3066 4069 2747 4153 
Q 2428 4238 2131 4238 
Q 1616 4238 1336 4038 
Q 1056 3838 1056 3469 
Q 1056 3159 1242 3001 
Q 1428 2844 1947 2747 
L 2328 2669 
Q 3034 2534 3370 2195 
Q 3706 1856 3706 1288 
Q 3706 609 3251 259 
Q 2797 -91 1919 -91 
Q 1588 -91 1214 -16 
Q 841 59 441 206 
L 441 856 
Q 825 641 1194 531 
Q 1563 422 1919 422 
Q 2459 422 2753 634 
Q 3047 847 3047 1241 
Q 3047 1584 2836 1778 
Q 2625 1972 2144 2069 
L 1759 2144 
Q 1053 2284 737 2584 
Q 422 2884 422 3419 
Q 422 4038 858 4394 
Q 1294 4750 2059 4750 
Q 2388 4750 2728 4690 
Q 3069 4631 3425 4513 
z
" transform="scale(0.015625)"/>
       <path id="DejaVuSans-62" d="M 3116 1747 
Q 3116 2381 2855 2742 
Q 2594 3103 2138 3103 
Q 1681 3103 1420 2742 
Q 1159 2381 1159 1747 
Q 1159 1113 1420 752 
Q 1681 391 2138 391 
Q 2594 391 2855 752 
Q 3116 1113 3116 1747 
z
M 1159 2969 
Q 1341 3281 1617 3432 
Q 1894 3584 2278 3584 
Q 2916 3584 3314 3078 
Q 3713 2572 3713 1747 
Q 3713 922 3314 415 
Q 2916 -91 2278 -91 
Q 1894 -91 1617 61 
Q 1341 213 1159 525 
L 1159 0 
L 581 0 
L 581 4863 
L 1159 4863 
L 1159 2969 
z
" transform="scale(0.015625)"/>
      </defs>
      <use xlink:href="#DejaVuSans-46"/>
      <use xlink:href="#DejaVuSans-6f" x="53.894531"/>
      <use xlink:href="#DejaVuSans-75" x="115.076172"/>
      <use xlink:href="#DejaVuSans-6e" x="178.455078"/>
      <use xlink:href="#DejaVuSans-64" x="241.833984"/>
      <use xlink:href="#DejaVuSans-61" x="305.310547"/>
      <use xlink:href="#DejaVuSans-74" x="366.589844"/>
      <use xlink:href="#DejaVuSans-69" x="405.798828"/>
      <use xlink:href="#DejaVuSans-6f" x="433.582031"/>
      <use xlink:href="#DejaVuSans-6e" x="494.763672"/>
      <use xlink:href="#DejaVuSans-5f" x="558.142578"/>
      <use xlink:href="#DejaVuSans-53" x="608.142578"/>
      <use xlink:href="#DejaVuSans-6c" x="671.619141"/>
      <use xlink:href="#DejaVuSans-61" x="699.402344"/>
      <use xlink:href="#DejaVuSans-62" x="760.681641"/>
     </g>
    </g>
    <g id="line2d_94">
     <path d="M 840.15625 167.030312 
L 850.15625 167.030312 
L 860.15625 167.030312 
" style="fill: none; stroke: #bcbd22; stroke-width: 1.5; stroke-linecap: square"/>
    </g>
    <g id="text_24">
     <!-- Foundation_Stone -->
     <g transform="translate(868.15625 170.530312)scale(0.1 -0.1)">
      <use xlink:href="#DejaVuSans-46"/>
      <use xlink:href="#DejaVuSans-6f" x="53.894531"/>
      <use xlink:href="#DejaVuSans-75" x="115.076172"/>
      <use xlink:href="#DejaVuSans-6e" x="178.455078"/>
      <use xlink:href="#DejaVuSans-64" x="241.833984"/>
      <use xlink:href="#DejaVuSans-61" x="305.310547"/>
      <use xlink:href="#DejaVuSans-74" x="366.589844"/>
      <use xlink:href="#DejaVuSans-69" x="405.798828"/>
      <use xlink:href="#DejaVuSans-6f" x="433.582031"/>
      <use xlink:href="#DejaVuSans-6e" x="494.763672"/>
      <use xlink:href="#DejaVuSans-5f" x="558.142578"/>
      <use xlink:href="#DejaVuSans-53" x="608.142578"/>
      <use xlink:href="#DejaVuSans-74" x="671.619141"/>
      <use xlink:href="#DejaVuSans-6f" x="710.828125"/>
      <use xlink:href="#DejaVuSans-6e" x="772.009766"/>
      <use xlink:href="#DejaVuSans-65" x="835.388672"/>
     </g>
    </g>
    <g id="line2d_95">
     <path d="M 840.15625 181.986562 
L 850.15625 181.986562 
L 860.15625 181.986562 
" style="fill: none; stroke: #17becf; stroke-width: 1.5; stroke-linecap: square"/>
    </g>
    <g id="text_25">
     <!-- Foundation_Wood -->
     <g transform="translate(868.15625 185.486562)scale(0.1 -0.1)">
      <defs>
       <path id="DejaVuSans-57" d="M 213 4666 
L 850 4666 
L 1831 722 
L 2809 4666 
L 3519 4666 
L 4500 722 
L 5478 4666 
L 6119 4666 
L 4947 0 
L 4153 0 
L 3169 4050 
L 2175 0 
L 1381 0 
L 213 4666 
z
" transform="scale(0.015625)"/>
      </defs>
      <use xlink:href="#DejaVuSans-46"/>
      <use xlink:href="#DejaVuSans-6f" x="53.894531"/>
      <use xlink:href="#DejaVuSans-75" x="115.076172"/>
      <use xlink:href="#DejaVuSans-6e" x="178.455078"/>
      <use xlink:href="#DejaVuSans-64" x="241.833984"/>
      <use xlink:href="#DejaVuSans-61" x="305.310547"/>
      <use xlink:href="#DejaVuSans-74" x="366.589844"/>
      <use xlink:href="#DejaVuSans-69" x="405.798828"/>
      <use xlink:href="#DejaVuSans-6f" x="433.582031"/>
      <use xlink:href="#DejaVuSans-6e" x="494.763672"/>
      <use xlink:href="#DejaVuSans-5f" x="558.142578"/>
      <use xlink:href="#DejaVuSans-57" x="608.142578"/>
      <use xlink:href="#DejaVuSans-6f" x="701.144531"/>
      <use xlink:href="#DejaVuSans-6f" x="762.326172"/>
      <use xlink:href="#DejaVuSans-64" x="823.507812"/>
     </g>
    </g>
   </g>
  </g>
 </g>
 <defs>
  <clipPath id="pe065dd3bac">
   <rect x="135" y="34.56" width="837" height="217.44"/>
  </clipPath>
 </defs>
</svg>
